<?xml version="1.0" encoding="utf-8"?>
<svg width="512" height="512" viewBox="0 0 512 512" xmlns="http://www.w3.org/2000/svg">
  <!-- White background -->
  <rect width="512" height="512" fill="#ffffff"/>
  
  <!-- Centered logo with extra padding for maskable safe zone (20% padding) -->
  <g transform="translate(102, 102) scale(0.6)">
    <polygon fill="#000000" points="365.284,332.418 365.284,305.202 272.767,305.202 387.051,212.689 376.17,174.592 169.368,316.092 180.253,141.939 147.601,152.828 125.83,348.761 0.664,452.14 0.664,512 49.643,512 240.114,343.3"/>
    <path fill="#000000" d="M448.163,41.908c-67.94,15.609-85.271,84.366-46.608,131.48C435.48,175.564,496.759,99.05,448.163,41.908z"/>
    <path fill="#000000" d="M388.215,327.476c13.457,19.787,82.469,20.759,93.207-30.955C443.376,265.519,397.673,285.616,388.215,327.476z"/>
    <path fill="#000000" d="M194.275,410.152c-2.594,28.061,59.378,80.659,107.876,41.708C290.815,395.196,234.234,379.221,194.275,410.152z"/>
    <path fill="#000000" d="M395.844,214.419c5.895,27.582,80.787,59.318,115.492,7.646C483.585,171.331,424.774,172.95,395.844,214.419z"/>
    <path fill="#000000" d="M273.866,79.44c-26.323-12.93-100.453,27.83-80.575,89.436C252.613,178.872,289.141,129.774,273.866,79.44z"/>
    <path fill="#000000" d="M155.457,137.594C184.645,117.665,185.881,15.721,109.463,0C63.772,56.297,93.599,123.747,155.457,137.594z"/>
    <path fill="#000000" d="M122.828,279.804c16.633-25.486-16.028-106.951-81.979-94.235C23.096,245.414,69.069,289.203,122.828,279.804z"/>
    <path fill="#000000" d="M368.488,362.114c-21.842,27.79,7.657,125.373,85.267,117.377C480.386,412.058,431.645,356.709,368.488,362.114z"/>
  </g>
</svg>